<svg width="314" height="114" viewBox="0 0 314 114" fill="none" xmlns="http://www.w3.org/2000/svg">
<path fill-rule="evenodd" clip-rule="evenodd" d="M22 0C9.84974 0 0 9.84974 0 22V70C0 82.1503 9.84973 92 22 92H209.044C209.615 92.0504 210.19 92.0763 210.768 92.0769L269.517 92.0769L280.436 112.983C281.226 113.64 282.222 113.999 283.25 114C284.415 114 285.532 113.538 286.356 112.716C287.18 111.894 287.643 110.778 287.643 109.615V92.0769H294.232C299.473 92.0711 304.498 89.9905 308.204 86.2915C311.91 82.5925 313.994 77.5773 314 72.3461V19.7308C313.994 14.4996 311.91 9.4844 308.204 5.78542C304.498 2.08644 299.473 0.00580271 294.232 0H221H210.768H22Z" fill="#094C3B"/>
</svg>
