<svg width="314" height="114" viewBox="0 0 314 114" fill="none" xmlns="http://www.w3.org/2000/svg">
<path fill-rule="evenodd" clip-rule="evenodd" d="M292 0C304.15 0 314 9.84974 314 22V70C314 82.1503 304.15 92 292 92H104.956C104.385 92.0504 103.81 92.0763 103.232 92.0769L44.483 92.0769L33.5642 112.983C32.7737 113.64 31.7782 113.999 30.75 114C29.5849 114 28.4676 113.538 27.6438 112.716C26.82 111.894 26.3571 110.778 26.3571 109.615V92.0769H19.7679C14.5269 92.0711 9.50223 89.9905 5.7963 86.2915C2.09036 82.5925 0.00582886 77.5773 0 72.3461V19.7308C0.00582886 14.4996 2.09036 9.4844 5.7963 5.78542C9.50223 2.08644 14.5269 0.00580271 19.7679 0H93H103.232H292Z" fill="#CB4555"/>
</svg>
